<?xml version="1.0" encoding="UTF-8" standalone="no"?>
<!-- Generator: Adobe Illustrator 16.0.0, SVG Export Plug-In . SVG Version: 6.00 Build 0)  -->

<svg
   xmlns:dc="http://purl.org/dc/elements/1.1/"
   xmlns:cc="http://creativecommons.org/ns#"
   xmlns:rdf="http://www.w3.org/1999/02/22-rdf-syntax-ns#"
   xmlns:svg="http://www.w3.org/2000/svg"
   xmlns="http://www.w3.org/2000/svg"
   xmlns:sodipodi="http://sodipodi.sourceforge.net/DTD/sodipodi-0.dtd"
   xmlns:inkscape="http://www.inkscape.org/namespaces/inkscape"
   version="1.1"
   id="Layer_1"
   x="0px"
   y="0px"
   width="32px"
   height="32px"
   viewBox="0 0 32 32"
   enable-background="new 0 0 32 32"
   xml:space="preserve"
   inkscape:version="0.91 r13725"
   sodipodi:docname="favicon.svg"
   inkscape:export-filename="D:\Documenten\School\Informatica\paul4a1314g\WebAppCijfers\res\favicon-32.png"
   inkscape:export-xdpi="90"
   inkscape:export-ydpi="90"><metadata
     id="metadata9"><rdf:RDF><cc:Work
         rdf:about=""><dc:format>image/svg+xml</dc:format><dc:type
           rdf:resource="http://purl.org/dc/dcmitype/StillImage" /></cc:Work></rdf:RDF></metadata><defs
     id="defs7" /><sodipodi:namedview
     pagecolor="#ffffff"
     bordercolor="#666666"
     borderopacity="1"
     objecttolerance="10"
     gridtolerance="10"
     guidetolerance="10"
     inkscape:pageopacity="0"
     inkscape:pageshadow="2"
     inkscape:window-width="1920"
     inkscape:window-height="1017"
     id="namedview5"
     showgrid="false"
     inkscape:zoom="7.375"
     inkscape:cx="5.6949156"
     inkscape:cy="21.423729"
     inkscape:window-x="-8"
     inkscape:window-y="-8"
     inkscape:window-maximized="1"
     inkscape:current-layer="Layer_1" /><g
     transform="scale(0.98798356,1.0121626)"
     style="font-style:italic;font-variant:normal;font-weight:normal;font-stretch:normal;font-size:31.68201447px;font-family:'Lucida Calligraphy';-inkscape-font-specification:'Lucida Calligraphy Italic';fill:#2ba6cb;fill-opacity:1;stroke:none;stroke-opacity:1"
     id="text3"><path
       d="m 13.255352,13.409929 1.098351,-1.237579 1.639792,0 1.949186,-9.8542198 q -3.171295,0 -5.151421,1.7171404 -1.964656,1.7016707 -1.964656,4.4552833 l 0.01547,0.3403341 -3.0165978,1.454155 Q 8.2276883,5.5358348 11.507272,3.3236628 14.802325,1.1114909 21.438841,1.1114909 l 8.926036,0 -1.392276,4.3779347 -0.990063,0 q 0.201107,-0.6187894 0.201107,-1.222109 0,-2.0110654 -6.327121,-2.0110654 l -0.665199,0 -1.964656,9.9160988 6.744804,0 -1.531504,1.577913 Q 21.964812,13.409929 19.73717,13.409929 l -0.758017,0 -0.897244,4.532632 q -1.129291,5.723802 -4.377935,9.142613 -3.233174,3.418811 -7.5337603,3.418811 -2.3204601,0 -4.1458886,-1.74808 l 2.2740508,-2.32046 q 1.222109,2.537036 3.9293124,2.537036 2.4751577,0 3.8829027,-2.243111 1.423216,-2.227642 2.552506,-7.905034 l 1.082882,-5.414407 -2.490627,0 z"
       style="font-style:italic;font-variant:normal;font-weight:normal;font-stretch:normal;font-size:31.68201447px;font-family:'Lucida Calligraphy';-inkscape-font-specification:'Lucida Calligraphy Italic';fill:#2ba6cb;fill-opacity:1;stroke:none;stroke-opacity:1"
       id="path4137" /></g></svg>